<?xml version="1.0" encoding="UTF-8"?>
<svg width="51px" height="33px" viewBox="0 0 51 33" version="1.1" xmlns="http://www.w3.org/2000/svg" xmlns:xlink="http://www.w3.org/1999/xlink">
    <!-- Generator: sketchtool 55.2 (78181) - https://sketchapp.com -->
    <title>4552DBD0-DEEA-429D-A715-692135AE7B32</title>
    <desc>Created with sketchtool.</desc>
    <defs>
        <radialGradient cx="1.82730939%" cy="90.8313185%" fx="1.82730939%" fy="90.8313185%" r="144.573273%" gradientTransform="translate(0.018273,0.908313),scale(1.000000,0.999965),rotate(-86.999846),translate(-0.018273,-0.908313)" id="radialGradient-1">
            <stop stop-color="#FED576" offset="0%"></stop>
            <stop stop-color="#F47133" offset="26.34%"></stop>
            <stop stop-color="#BC3081" offset="60.91%"></stop>
            <stop stop-color="#4C63D2" offset="100%"></stop>
        </radialGradient>
        <radialGradient cx="172.050611%" cy="145.418038%" fx="172.050611%" fy="145.418038%" r="93.8529637%" gradientTransform="translate(1.720506,1.454180),scale(0.791331,1.000000),rotate(-90.337899),translate(-1.720506,-1.454180)" id="radialGradient-2">
            <stop stop-color="#F9FAFB" offset="0%"></stop>
            <stop stop-color="#CFDADF" offset="73.587%"></stop>
            <stop stop-color="#CFDADF" offset="73.587%"></stop>
            <stop stop-color="#F1F3F5" offset="100%"></stop>
        </radialGradient>
    </defs>
    <g id="Symbols" stroke="none" stroke-width="1" fill="none" fill-rule="evenodd">
        <g id="social-icons" transform="translate(0.000000, 1.000000)">
            <g id="Group-6">
                <g id="ico-facebook">
                    <circle id="XMLID_2_" fill="#295396" cx="7.74193548" cy="7.74193548" r="7.74193548"></circle>
                    <path d="M7.09839928,10.0460558 C7.09839928,9.32405253 7.09839928,8.5911098 7.09839928,7.86910652 C7.09839928,7.74877264 7.06719753,7.70501486 6.95279109,7.71595431 C6.73437881,7.72689375 6.52636711,7.71595431 6.30795482,7.71595431 C6.22475014,7.71595431 6.19354839,7.69407542 6.19354839,7.59562042 C6.19354839,7.14710323 6.19354839,6.6876466 6.19354839,6.2391294 C6.19354839,6.15161385 6.21434956,6.11879552 6.29755424,6.12973497 C6.51596652,6.12973497 6.73437881,6.11879552 6.96319168,6.12973497 C7.0879987,6.14067441 7.11920046,6.08597719 7.11920046,5.96564331 C7.10879987,5.61558111 7.10879987,5.27645836 7.11920046,4.92639616 C7.12960104,4.49975785 7.23360689,4.10593788 7.47282035,3.76681512 C7.77443731,3.32923737 8.2008613,3.13232739 8.70008938,3.1104485 C9.20971805,3.08856961 9.71934671,3.09950905 10.2289754,3.09950905 C10.3017795,3.09950905 10.3225806,3.12138794 10.3225806,3.19796405 C10.3225806,3.65742068 10.3225806,4.11687732 10.3225806,4.57633396 C10.3225806,4.65291006 10.3017795,4.68572839 10.2185748,4.68572839 C9.96896075,4.68572839 9.7297473,4.68572839 9.48013326,4.68572839 C9.15771512,4.68572839 8.96010401,4.86075949 8.93930284,5.19988225 C8.91850167,5.47336834 8.93930284,5.74685444 8.92890225,6.02034053 C8.92890225,6.11879552 8.98090518,6.10785608 9.04330869,6.10785608 C9.41772975,6.10785608 9.79215081,6.10785608 10.1561713,6.10785608 C10.2705777,6.10785608 10.3017795,6.12973497 10.2913789,6.25006885 C10.239376,6.70952548 10.2081742,7.15804268 10.1665719,7.61749931 C10.1561713,7.71595431 10.1145689,7.73783319 10.0209637,7.73783319 C9.7297473,7.73783319 9.42813033,7.73783319 9.13691395,7.73783319 C8.92890225,7.73783319 8.94970342,7.70501486 8.94970342,7.93474318 C8.94970342,9.35687086 8.94970342,10.7789985 8.94970342,12.2011262 C8.94970342,12.3542784 8.91850167,12.3870968 8.77289348,12.3870968 C8.26326481,12.3761573 7.76403673,12.3761573 7.25440806,12.3870968 C7.10879987,12.3870968 7.0879987,12.343339 7.0879987,12.2011262 C7.09839928,11.4791229 7.09839928,10.7680591 7.09839928,10.0460558 Z" id="XMLID_1_" fill="#FFFFFF"></path>
                </g>
                <g id="Layer-1" transform="translate(35.096774, 0.000000)" fill-rule="nonzero">
                    <circle id="svg_17" stroke="#60D467" stroke-width="1.5" fill="#60D467" cx="7.31771984" cy="7.31771984" r="7.31771984"></circle>
                    <path d="M12.5143615,7.18387768 C12.5143615,9.98001768 10.2302646,12.2466772 7.41218312,12.2466772 C6.51755263,12.2466772 5.67708175,12.0180249 4.945857,11.6167286 L2.12107821,12.5143615 L3.04203871,9.79801962 C2.57745895,9.03515263 2.30988917,8.14040654 2.30988917,7.18387768 C2.30988917,4.38773769 4.59421723,2.12107821 7.41218312,2.12107821 C10.2304947,2.12107821 12.5143615,4.38773769 12.5143615,7.18387768 Z M7.41218312,2.9273658 C5.04667185,2.9273658 3.12252833,4.83684313 3.12252833,7.18387768 C3.12252833,8.11523146 3.42612779,8.97775837 3.93967159,9.67942059 L3.40372497,11.260239 L5.05221529,10.7363019 C5.72951056,11.1810188 6.54088025,11.4403896 7.41229872,11.4403896 C9.77746319,11.4403896 11.7019535,9.53114344 11.7019535,7.18410888 C11.7019535,4.83707433 9.77757985,2.9273658 7.41218312,2.9273658 L7.41218312,2.9273658 L7.41218312,2.9273658 Z M9.98867804,8.34988847 C9.95715139,8.29826885 9.87388953,8.267089 9.74893999,8.20507503 C9.6237582,8.14306213 9.00870703,7.84269624 8.89438091,7.80146885 C8.779708,7.76012691 8.6961004,7.73934034 8.61283853,7.86348175 C8.52957667,7.98773875 8.28983862,8.26708794 8.21673884,8.34988741 C8.14375466,8.43291807 8.07088608,8.44331136 7.94570535,8.38118285 C7.82075475,8.31916995 7.41784216,8.18798338 6.94009792,7.76532355 C6.56836518,7.43643341 6.31730906,7.03040283 6.24432488,6.90603023 C6.1714563,6.78188776 6.23670278,6.71479381 6.29917808,6.65301105 C6.35553301,6.59734971 6.42435988,6.50808202 6.48683411,6.43567583 C6.54954061,6.36315404 6.57032718,6.31153336 6.61178471,6.22861829 C6.65370464,6.14581882 6.63280247,6.07341158 6.60139143,6.01116748 C6.57021158,5.94915457 6.31984905,5.33849085 6.21568502,5.08997578 C6.11152099,4.84169191 6.00747256,4.88303385 5.93437384,4.88303385 C5.86150526,4.88303385 5.7780122,4.87264057 5.69463579,4.87264057 C5.61125833,4.87264057 5.47568431,4.90370482 5.3610114,5.02784728 C5.24645409,5.15210429 4.92345418,5.45235563 4.92345418,6.0629027 C4.92345418,6.67356536 5.37140468,7.26355811 5.43411118,7.34624198 C5.49658648,7.42892585 6.29906354,8.72277508 7.57050782,9.21968856 C8.84206876,9.7163719 8.84206876,9.55065736 9.07141352,9.52987079 C9.30052815,9.50919982 9.81118409,9.2297361 9.91581052,8.94010924 C10.0197433,8.65002103 10.0197433,8.40162156 9.9886791,8.34988635 L9.98867804,8.34988847 L9.98867804,8.34988847 Z" id="WhatsApp" fill="#FFFFFF"></path>
                </g>
                <g id="ico-twitter" transform="translate(17.548387, 0.000000)" fill-rule="nonzero">
                    <circle id="XMLID_3_" fill="#5EA0EF" cx="7.74193548" cy="7.74193548" r="7.74193548"></circle>
                    <path d="M6.05179464,11.4384371 C9.486597,11.4384371 11.3621081,8.59245797 11.3621081,6.12812358 C11.3621081,6.05179464 11.3621081,5.96456156 11.3621081,5.88823262 C11.7219446,5.62653339 12.0381645,5.29940936 12.2889596,4.91776465 C11.9509314,5.07042254 11.591095,5.16855975 11.2203544,5.21217628 C11.6019991,4.98318946 11.8964107,4.61244889 12.0381645,4.17628351 C11.678328,4.3943662 11.2748751,4.54702408 10.8496138,4.63425716 C10.5115856,4.27442072 10.0208996,4.04543389 9.486597,4.04543389 C8.45070423,4.04543389 7.62199,4.88505225 7.62199,5.91004089 C7.62199,6.05179464 7.64379827,6.19354839 7.66560654,6.33530214 C6.11721945,6.25897319 4.7432985,5.51749205 3.81644707,4.38346206 C3.65288505,4.65606542 3.56565198,4.98318946 3.56565198,5.32121763 C3.56565198,5.96456156 3.89277601,6.54248069 4.3943662,6.86960473 C4.08905043,6.85870059 3.80554294,6.77146751 3.54384371,6.6406179 C3.54384371,6.65152204 3.54384371,6.65152204 3.54384371,6.66242617 C3.54384371,7.56746933 4.18718764,8.31985461 5.03771013,8.49432076 C4.88505225,8.5379373 4.7105861,8.55974557 4.54702408,8.55974557 C4.4270786,8.55974557 4.30713312,8.54884144 4.19809178,8.52703317 C4.43798274,9.26851431 5.12494321,9.8028169 5.94275329,9.82462517 C5.29940936,10.3262154 4.50340754,10.620627 3.62017265,10.620627 C3.46751477,10.620627 3.32576102,10.6097229 3.17310313,10.5988187 C4.02362562,11.1331213 5.00499773,11.4384371 6.05179464,11.4384371" id="XMLID_2_" fill="#FFFFFF"></path>
                </g>
                <g id="ico-instagram-cir" transform="translate(0.000000, 16.516129)">
                    <g id="background">
                        <rect id="canvas_background" x="0" y="0" width="15.483871" height="15.483871"></rect>
                    </g>
                    <g id="Layer-1" transform="translate(0.106054, 0.106054)" fill-rule="nonzero">
                        <g id="svg_1">
                            <g id="Background_1_" fill="url(#radialGradient-1)">
                                <path d="M0.103263632,7.44488272 L0.103263632,7.85093769 C0.209191339,11.7467136 3.34582059,14.874517 7.0797635,15.1687593 L8.2273103,15.1687593 C11.9818499,14.871573 15.0655137,11.71729 15.1684995,7.84505276 L15.1684995,7.44488378 C15.0655137,3.50497145 11.8759222,0.309492886 8.03016668,0.112350331 C3.8931118,-0.0965620857 0.218018206,3.22249792 0.103263632,7.44488272 Z" id="svg_2"></path>
                            </g>
                            <g id="Symbol" transform="translate(3.075563, 2.969510)" fill="#FFFFFF">
                                <g id="svg_3">
                                    <path d="M4.59562775,0.917978259 C5.79613893,0.917978259 5.93737517,0.920920194 6.41404825,0.94445992 C6.85247088,0.962114715 7.08786496,1.03861776 7.24675599,1.10040795 C7.4556684,1.18279593 7.60573151,1.28283871 7.76168166,1.44172974 C7.91763076,1.60062077 8.01767247,1.75362687 8.10006151,1.96548228 C8.16185276,2.12731631 8.23246982,2.36859532 8.25601061,2.81584481 C8.27954927,3.29840283 8.28249121,3.44258206 8.28249121,4.66368891 C8.28249121,5.88479576 8.27954927,6.02897711 8.25601061,6.51153513 C8.23835581,6.95584163 8.1647947,7.20006363 8.10006151,7.3618966 C8.01767247,7.57375095 7.92057375,7.72675811 7.76168166,7.88564914 C7.60573257,8.04454017 7.45566947,8.144584 7.24675599,8.22697092 C7.08786496,8.29170411 6.84952788,8.36526522 6.41404825,8.38291896 C5.9403171,8.40645868 5.79613787,8.40940168 4.59562775,8.40940168 C3.39511763,8.40940168 3.25388034,8.40645868 2.77720619,8.38291896 C2.33878462,8.36526522 2.10339054,8.28876111 1.94449951,8.22697092 C1.7355871,8.14458294 1.58552293,8.04454017 1.42957384,7.88564914 C1.27362475,7.72675811 1.17358197,7.57375201 1.09119399,7.3618966 C1.0294038,7.20006257 0.958784622,6.95878356 0.935244896,6.51153513 C0.911706231,6.02897605 0.908763235,5.88479788 0.908763235,4.66368891 C0.908763235,3.44257994 0.911706231,3.29840177 0.935244896,2.81584481 C0.952899691,2.37153725 1.02645974,2.12731631 1.09119399,1.96548228 C1.17358197,1.75362793 1.27068175,1.60062077 1.42957384,1.44172974 C1.58552293,1.28283871 1.73558604,1.18279593 1.94449951,1.10040795 C2.10339054,1.03567477 2.34172762,0.962113654 2.77720619,0.94445992 C3.25093734,0.92386213 3.39511551,0.917978259 4.59562775,0.917978259 L4.59562775,0.917978259 Z M4.59562775,0.0940973928 C3.37451984,0.0940973928 3.22151374,0.0999823243 2.74483959,0.12352205 C2.26816544,0.147061776 1.93861352,0.223564825 1.65319806,0.335377464 C1.35601273,0.453075033 1.10590685,0.609023067 0.858742908,0.865014936 C0.60863597,1.12100574 0.455629872,1.37405568 0.340875298,1.67712488 C0.22906266,1.96548334 0.152559611,2.30092019 0.131962881,2.78642121 C0.108423155,3.27192223 0.10548122,3.42787026 0.10548122,4.6695749 C0.10548122,5.91127954 0.111366151,6.06722863 0.131962881,6.55272965 C0.155502607,7.03823067 0.232005656,7.37072559 0.340875298,7.66202492 C0.455629872,7.96215325 0.60863597,8.21814406 0.858742908,8.47413593 C1.10884985,8.73012779 1.35895572,8.88607583 1.65319806,9.00377234 C1.93861352,9.11852691 2.26816544,9.19503102 2.74483959,9.21562775 C3.22445568,9.23916642 3.37746178,9.24505135 4.59562775,9.24505135 C5.81379373,9.24505135 5.96974282,9.23916642 6.44641591,9.21562775 C6.92309006,9.19208802 7.25264198,9.11558498 7.53805745,9.00377234 C7.83524171,8.88607477 8.08534865,8.73012673 8.33251365,8.47413593 C8.58261953,8.21814406 8.73562563,7.96509518 8.8503802,7.66202492 C8.96219284,7.37366858 9.03869695,7.03823067 9.05929368,6.55272965 C9.08283235,6.06722863 9.08577428,5.9112806 9.08577428,4.6695749 C9.08577428,3.4278692 9.07988935,3.27192223 9.05929368,2.78642121 C9.03575395,2.30092019 8.95924985,1.96842528 8.8503802,1.67712488 C8.73562563,1.37699655 8.58261953,1.12100574 8.33251365,0.865014936 C8.08240778,0.609024127 7.83230084,0.453075033 7.53805745,0.335377464 C7.25264092,0.22062289 6.923089,0.144119841 6.44641591,0.12352205 C5.96974176,0.0999823243 5.81379373,0.0940973928 4.59562775,0.0940973928 L4.59562775,0.0940973928 Z" id="svg_4"></path>
                                    <path d="M4.59562775,2.31857287 C3.31861352,2.31857287 2.28876323,3.36902095 2.28876323,4.6666319 C2.28876323,5.96424286 3.32155546,7.01468988 4.59562775,7.01468988 C5.86970004,7.01468988 6.90249227,5.96424286 6.90249227,4.6666319 C6.90249227,3.36902095 5.86970004,2.31857287 4.59562775,2.31857287 L4.59562775,2.31857287 Z M4.59562775,6.19080901 C3.76880601,6.19080901 3.09793124,5.51110738 3.09793124,4.66663084 C3.09793124,3.82215431 3.76880601,3.14245373 4.59562775,3.14245373 C5.42244949,3.14245373 6.09332426,3.82215431 6.09332426,4.66663084 C6.09332426,5.51110844 5.42244949,6.19080901 4.59562775,6.19080901 Z" id="svg_5"></path>
                                    <ellipse id="svg_6" cx="6.99370711" cy="2.22441608" rx="1" ry="1"></ellipse>
                                </g>
                            </g>
                        </g>
                    </g>
                </g>
                <g id="ico-snapchat-cir" transform="translate(17.032258, 16.516129)">
                    <g id="background">
                        <rect id="canvas_background" x="0" y="0" width="15.483871" height="15.483871"></rect>
                    </g>
                    <g id="Layer-1" fill-rule="nonzero">
                        <g id="svg_1">
                            <path d="M7.52982766,14.9908274 L7.52982766,14.9908274 C11.649792,14.9908274 14.9908274,11.649792 14.9908274,7.52982766 L14.9908274,7.52982766 C14.9908274,3.40986443 11.6497909,0.0688279275 7.52982766,0.0688279275 L7.52982766,0.0688279275 C3.40986443,0.0688279275 0.0688279275,3.40986337 0.0688279275,7.52982766 L0.0688279275,7.52982766 C0.0688279275,11.6497909 3.40986337,14.9908274 7.52982766,14.9908274 Z" id="svg_2" fill="#FFFC00"></path>
                            <g id="svg_3" transform="translate(2.064516, 2.064516)">
                                <path d="M5.74258716,10.5310272 C5.71315722,10.5310272 5.68582941,10.5310272 5.66060224,10.52682 C5.64168299,10.52682 5.62276224,10.5310272 5.60384299,10.5310272 C4.95217087,10.5310272 4.53593983,10.2346196 4.13022248,9.94872272 C3.85273562,9.7490165 3.58576095,9.5661274 3.27884414,9.51357392 C3.12959076,9.48834676 2.97402947,9.47573392 2.83318465,9.47573392 C2.57041426,9.47573392 2.36440163,9.51777671 2.21514676,9.54720815 C2.12475328,9.5661274 2.04276835,9.58084238 1.98180632,9.58084238 C1.91874214,9.58084238 1.85147219,9.56612591 1.8199401,9.46522323 C1.79471443,9.37903552 1.77579518,9.29284482 1.75687443,9.21086139 C1.71272951,9.00064448 1.67909528,8.87030886 1.58870031,8.85559389 C0.556536503,8.69372767 0.26013039,8.47720285 0.192860441,8.3237452 C0.184451885,8.30062166 0.178145467,8.27960027 0.178145467,8.25647525 C0.173941188,8.19551321 0.215985467,8.14295973 0.274845365,8.13665182 C1.86198289,7.87388143 2.57461854,6.25310818 2.60404998,6.18163545 C2.60404998,6.17743117 2.60404998,6.17743117 2.60825426,6.17322689 C2.70495416,5.97772496 2.72387341,5.80534805 2.66501202,5.66660387 C2.55569929,5.41224204 2.20043328,5.29452075 1.96709134,5.22304652 C1.91033358,5.20412727 1.85357433,5.18941229 1.81363368,5.17049304 C1.34485066,4.98760394 1.30280638,4.79630778 1.32172564,4.69750574 C1.35115559,4.53143525 1.57398533,4.4158146 1.75267015,4.4158146 C1.80101935,4.4158146 1.84726791,4.42422166 1.88090214,4.44314241 C2.09111905,4.53984231 2.28241671,4.59239728 2.44638655,4.59239728 C2.67131844,4.59239728 2.77222261,4.49779952 2.78483545,4.48308604 C2.7764254,4.37377331 2.77432475,4.26235694 2.7659147,4.14884143 C2.7175655,3.39836577 2.66080625,2.46500401 2.89625032,1.93315531 C3.60888448,0.339711375 5.11614221,0.215683667 5.5618002,0.215683667 C5.57230941,0.215683667 5.75730214,0.211479389 5.75730214,0.211479389 L5.78462995,0.211479389 C6.23028944,0.211479389 7.74174995,0.335507097 8.4543856,1.93315531 C8.68982818,2.46500401 8.63517256,3.40046941 8.58471823,4.14884143 L8.58051545,4.18247565 C8.57210689,4.28758411 8.57000475,4.38848829 8.5615962,4.48729032 C8.57210689,4.49780102 8.66249888,4.58399022 8.86851151,4.59660306 C9.02617494,4.5881945 9.20696041,4.5398438 9.4003617,4.44734818 C9.45711946,4.42212102 9.52438941,4.41371396 9.56643219,4.41371396 C9.63370214,4.41371396 9.70097059,4.42422316 9.75772985,4.45155396 L9.76193413,4.45155396 C9.92380183,4.50831171 10.024706,4.61972808 10.0289088,4.73744788 C10.0331131,4.84676211 9.94692537,5.01073046 9.53279796,5.17680244 C9.49075518,5.19151742 9.43609806,5.21043667 9.37934031,5.22935593 C9.14389623,5.30503294 8.79073236,5.4164493 8.68141963,5.67291328 C8.6204561,5.81165596 8.63937684,5.98403586 8.73817888,6.1795363 C8.73817888,6.18374058 8.73817888,6.18374058 8.74238166,6.18794486 C8.77181311,6.25521331 9.48445025,7.88019083 11.0715863,8.14085908 C11.1325498,8.15137127 11.1724905,8.20392475 11.1682847,8.26068401 C11.1682847,8.28380754 11.1598776,8.30482893 11.1535682,8.32795396 C11.090504,8.48141161 10.7940994,8.70003857 9.75772835,8.85770051 C9.67574343,8.86821121 9.6421092,8.98172672 9.58955423,9.21086438 C9.57063497,9.29284781 9.55171423,9.37483273 9.52649005,9.46312407 C9.50336652,9.53880109 9.4592201,9.57243681 9.37933881,9.57243681 L9.36882812,9.57243681 C9.31206886,9.57243681 9.23849399,9.56192611 9.13548469,9.54300686 C8.95890499,9.50937263 8.76340007,9.47573691 8.51744829,9.47573691 C8.37029555,9.47573691 8.22104217,9.48624761 8.0717873,9.51357691 C7.76066771,9.56613039 7.49789582,9.74901949 7.22040896,9.9487257 C6.81258649,10.2346211 6.39215267,10.5310272 5.74258268,10.5310272" id="svg_5" fill="#FFFFFF"></path>
                                <path d="M5.78042567,0.102160679 L5.78042567,0.102160679 L5.75519851,0.102160679 L5.55969806,0.102160679 C5.09932211,0.102160679 3.52689956,0.230395654 2.78903823,1.89110954 C2.54098282,2.45028754 2.60194486,3.39836428 2.64609127,4.15935063 C2.65449983,4.24974411 2.65660197,4.34224122 2.66080774,4.43263321 C2.62296774,4.45575674 2.55149351,4.48098241 2.44428441,4.48098241 C2.29713168,4.48098241 2.12475477,4.43683898 1.9271507,4.34224122 C1.87459572,4.3191147 1.81363368,4.30439973 1.75056801,4.30439973 C1.52143185,4.30439973 1.24814927,4.4536546 1.20610649,4.67858798 C1.17667654,4.84045419 1.24814927,5.07589677 1.76948727,5.28190941 C1.81783796,5.30082866 1.87459572,5.31974941 1.93135497,5.33867015 C2.14577766,5.40593861 2.47161222,5.51104856 2.55780143,5.7170582 C2.60194784,5.82637243 2.5830271,5.9651166 2.50524645,6.12908496 C2.50524645,6.13328774 2.50104217,6.13749202 2.50104217,6.13959565 C2.47161222,6.2068656 1.78420224,7.7708781 0.26223253,8.02313929 C0.146613379,8.04205854 0.0604241766,8.14716849 0.0667305942,8.26699042 C0.0709348727,8.30062465 0.0772412903,8.33846465 0.0919562649,8.37209888 C0.207575416,8.63907205 0.688972767,8.83667613 1.56978105,8.97121603 C1.5992125,9.01326031 1.63074458,9.15200299 1.6475617,9.23819219 C1.66648095,9.32017711 1.6854017,9.4105691 1.71062737,9.50096258 C1.73585304,9.59135756 1.80522513,9.70066879 1.98390846,9.70066879 C2.05538268,9.70066879 2.14157039,9.68595531 2.23827178,9.66283029 C2.38542302,9.63340034 2.58723287,9.59556034 2.83528829,9.59556034 C2.97403097,9.59556034 3.1211837,9.60607104 3.26202852,9.63340034 C3.54792244,9.68175104 3.7875708,9.84992367 4.06505616,10.0496299 C4.46657073,10.3313195 4.9164345,10.6529528 5.60594513,10.6529528 C5.62486587,10.6529528 5.64378513,10.6529528 5.66270438,10.6487485 C5.68582941,10.6487485 5.71525935,10.6529528 5.7446893,10.6529528 C6.43420143,10.6529528 6.8840652,10.3334217 7.28557827,10.0496299 C7.56726941,9.84992367 7.80691626,9.68174954 8.0886074,9.63340034 C8.23575864,9.61027681 8.37660346,9.59556034 8.51534764,9.59556034 C8.75499599,9.59556034 8.94208788,9.62499178 9.11236414,9.65862601 C9.2174726,9.68174954 9.30366031,9.68805596 9.36672598,9.68805596 L9.37513453,9.68805596 L9.3835416,9.68805596 C9.51387722,9.68805596 9.6042692,9.62078601 9.64210771,9.49255402 C9.66733487,9.40216054 9.68625413,9.31597284 9.70517338,9.23398791 C9.72409263,9.14779871 9.75352407,9.00905453 9.78295402,8.96701175 C10.6595595,8.83247185 11.1451597,8.63276564 11.2607788,8.36789311 C11.2754953,8.33425739 11.2839038,8.29641888 11.286006,8.26278465 C11.2944145,8.14296122 11.2082253,8.03785127 11.090504,8.01893202 C9.56433005,7.76667233 8.87692007,6.2005547 8.8516944,6.13538839 C8.8516944,6.13118411 8.84749012,6.12697834 8.84749012,6.12487769 C8.76550669,5.96090934 8.74658594,5.82216367 8.79493664,5.71285243 C8.88112584,5.5068398 9.2069619,5.40173134 9.42138309,5.33446139 C9.48234662,5.31554214 9.53700224,5.29662139 9.5832493,5.27770214 C9.96164034,5.12844727 10.152938,4.94345752 10.1487337,4.73113847 C10.1445294,4.56296435 10.0141938,4.41160883 9.80818268,4.3401346 C9.73670846,4.31070465 9.65472503,4.29598818 9.57484224,4.29598818 C9.51808448,4.29598818 9.43609956,4.30439525 9.36041956,4.3401346 C9.1796326,4.4263238 9.01566424,4.47046723 8.87692007,4.47887728 C8.78232231,4.47467301 8.72346241,4.45365012 8.68982669,4.43052659 C8.69403097,4.35274594 8.69823674,4.27286316 8.70454316,4.19087973 L8.70874744,4.15724401 C8.75709664,3.39625915 8.81806017,2.44607878 8.56579898,1.88900441 C7.81742547,0.228290526 6.24500441,0.102160679 5.78042418,0.102160679 M5.78042418,0.333398981 C6.20506228,0.333398981 7.65976503,0.446915993 8.34507138,1.98360217 C8.57000326,2.4902252 8.5132455,3.40887199 8.4648948,4.14463267 C8.45648774,4.26025032 8.45017834,4.37376883 8.44597555,4.48308156 L8.44177127,4.52722798 L8.47120122,4.56086221 C8.48171192,4.57557718 8.60153535,4.69540211 8.86220659,4.70801345 L8.86641087,4.70801345 L8.87061365,4.70801345 C9.04299205,4.69960489 9.23849399,4.64705141 9.44870941,4.55035151 C9.47813935,4.53563504 9.52018363,4.52722798 9.56432856,4.52722798 C9.61267925,4.52722798 9.66523423,4.53773868 9.71148129,4.55245365 L9.71988835,4.55665793 C9.83340686,4.59449793 9.90698323,4.67017494 9.91118601,4.73744489 C9.91118601,4.77528489 9.88596183,4.90982329 9.49075219,5.06328244 C9.45291368,5.07799891 9.40035871,5.09271239 9.34360095,5.11163314 C9.08923912,5.19361806 8.70243952,5.31344149 8.57000326,5.62246044 C8.49432625,5.79483735 8.51744829,5.9966457 8.63096679,6.22578336 C8.67511022,6.3350946 9.40666662,7.97689073 11.0463591,8.24806968 C11.0463591,8.25647823 11.0421548,8.26278615 11.0379506,8.27539749 C11.0127234,8.33846316 10.8319379,8.56760081 9.73250418,8.73577345 C9.56012577,8.76100061 9.51808299,8.95650255 9.46973379,9.1793308 C9.45081304,9.25711144 9.43609806,9.34119851 9.40877025,9.42318492 C9.4003602,9.4484091 9.4003602,9.4484091 9.37093025,9.4484091 L9.36041956,9.4484091 C9.31207036,9.4484091 9.23639036,9.4378984 9.15020265,9.42318492 C8.99254071,9.39375497 8.77811803,9.35591497 8.50904272,9.35591497 C8.35558506,9.35591497 8.19792163,9.37062995 8.04446098,9.39375497 C7.70601209,9.45051273 7.432731,9.64601467 7.14473345,9.84782153 C6.75373107,10.1211026 6.35431864,10.4069995 5.73838289,10.4069995 C5.71315722,10.4069995 5.68582941,10.4069995 5.66060374,10.4027952 L5.65219518,10.4027952 L5.64378662,10.4027952 L5.5996402,10.4027952 C4.98370445,10.4027952 4.58429351,10.1169013 4.19328964,9.84361874 C3.90529209,9.63760462 3.62990886,9.44630846 3.29356061,9.3895492 C3.13589718,9.36432204 2.97823525,9.3517092 2.82898037,9.3517092 C2.55569779,9.3517092 2.3412766,9.39375348 2.18781895,9.42318343 C2.10162975,9.44210268 2.02595273,9.45261338 1.97760204,9.45261338 C1.93555776,9.45261338 1.93555776,9.4484091 1.92925134,9.42318343 C1.90402418,9.34119851 1.88720856,9.2550093 1.86828781,9.17512652 C1.81993861,8.95019613 1.77789582,8.7546927 1.60551593,8.72946703 C0.506082173,8.5612929 0.329499491,8.33215823 0.300069542,8.26909107 C0.295865263,8.25858187 0.291660985,8.25017182 0.291660985,8.2438654 C1.93345562,7.9747871 2.66290839,6.33089032 2.70705331,6.22157759 C2.82057032,5.99244143 2.83738744,5.79063307 2.76801684,5.61825467 C2.63768272,5.31133786 2.25088312,5.19151443 1.99441915,5.10742737 C1.93345562,5.08850812 1.88510642,5.07379314 1.84726642,5.05907667 C1.51722608,4.92874404 1.41211762,4.79630628 1.4268326,4.71852564 C1.44575334,4.62392788 1.60341528,4.53143375 1.74215796,4.53143375 C1.77158791,4.53143375 1.80312149,4.53563803 1.81993861,4.54614873 C2.04487049,4.65125718 2.2550874,4.70801494 2.43587436,4.70801494 C2.72176978,4.70801494 2.84789963,4.57768081 2.8626146,4.5608637 L2.89204455,4.52722947 L2.88784027,4.48308306 C2.87943171,4.37377032 2.87732958,4.26235545 2.86892102,4.14463416 C2.8247746,3.40677284 2.76381256,2.49022669 2.98874445,1.98360367 C3.67194866,0.449019626 5.12244564,0.333398981 5.55128951,0.333398981 L5.74679144,0.333398981 C5.7657107,0.333398981 5.77201861,0.333398981 5.78042567,0.333398981" id="svg_6" fill="#000000"></path>
                            </g>
                        </g>
                    </g>
                </g>
                <g id="Group-5" transform="translate(34.064516, 16.516129)" fill-rule="nonzero">
                    <g id="Group-4" fill="#79C5D5" stroke="#000000" stroke-opacity="0">
                        <path d="M15.4320033,7.71600278 C15.4320033,11.977433 11.9774297,15.4320033 7.71599944,15.4320033 C3.45457095,15.4320033 -4.40536496e-13,11.9774313 -4.40536496e-13,7.71600278 C-4.40536496e-13,3.45457342 3.45457008,4.26325641e-14 7.71599944,4.26325641e-14 C9.76241081,4.26325641e-14 11.7250066,0.812933248 13.1720381,2.2599645 C14.6190695,3.70699575 15.4320033,5.66959142 15.4320033,7.71600278 L15.4320033,7.71600278 Z" id="svg_2"></path>
                    </g>
                    <g id="Group" transform="translate(2.064516, 3.096774)">
                        <g id="g4081" transform="translate(5.539179, 4.469111) scale(-1, 1) rotate(-180.000000) translate(-5.539179, -4.469111) translate(0.377671, 0.377671)" fill="url(#radialGradient-2)">
                            <g id="g4083">
                                <g id="g4089">
                                    <g id="g4091">
                                        <path d="M5.22102406,8.1132638 C4.37730255,7.99933295 3.54806599,7.64847755 2.88575763,7.12552991 L2.88575763,7.12552991 C2.14929478,6.5439123 1.67456192,5.79939622 1.51329627,4.97254906 L1.51329627,4.97254906 C1.46445077,4.72290832 1.44380474,4.45010499 1.42202821,4.16118391 L1.42202821,4.16118391 C1.3369225,3.03471624 1.21896945,2.35075221 0.298457282,2.35075221 L0.298457282,2.35075221 C0.191323257,2.35075221 0.0930015636,2.29020017 0.0454162357,2.19401861 L0.0454162357,2.19401861 C-0.00267643078,2.09796421 0.00802677455,1.98315338 0.072608571,1.8972961 L0.072608571,1.8972961 C1.31666043,0.246616857 3.45163013,0.0558991327 4.9492266,0.0558991327 L4.9492266,0.0558991327 C4.98736889,0.0558991327 5.02513476,0.0558991327 5.06251919,0.0560262821 L5.06251919,0.0560262821 C5.09010052,0.0562755451 5.11854547,0.0564026945 5.14787794,0.0564026945 L5.14787794,0.0564026945 C5.19068069,0.0564026945 5.23524213,0.0562755451 5.28119844,0.0560262821 L5.28119844,0.0560262821 C5.33092012,0.0558991327 5.38228594,0.0558991327 5.43515741,0.0558991327 L5.43515741,0.0558991327 C6.13473185,0.0558991327 6.87307803,0.0897611437 7.53161597,0.335244987 L7.53161597,0.335244987 C8.70126658,0.771331994 9.68673695,1.75189264 10.042244,2.83316816 L10.042244,2.83316816 C10.4435815,4.05342295 10.2571428,5.28840818 9.51728716,6.31063857 L9.51728716,6.31063857 C8.69433883,7.44767852 7.28133696,8.15405356 5.82970561,8.15405356 L5.82970561,8.15405356 C5.62663551,8.15405356 5.42181428,8.14033024 5.22102281,8.1132638" id="path4103"></path>
                                    </g>
                                </g>
                            </g>
                        </g>
                        <g id="Group-3" transform="translate(0.000000, 0.000000)">
                            <g id="g4113" transform="translate(5.476234, 4.406165) scale(-1, 1) rotate(-180.000000) translate(-5.476234, -4.406165) translate(-0.000000, -0.000000)" fill="#3D3D3D">
                                <path d="M6.20736308,8.68903254 C5.9917115,8.68903254 5.77404567,8.67441918 5.56079104,8.64559027 C4.66759458,8.52498974 3.78951127,8.15348453 3.08792384,7.59956785 C2.29745901,6.97527589 1.78747432,6.17272811 1.61299142,5.2785283 C1.56112582,5.01264769 1.53896658,4.71856762 1.5174368,4.43430826 C1.48382783,3.9891584 1.44908207,3.52890169 1.30757869,3.22814942 C1.21077146,3.02257033 1.06650102,2.88572742 0.676113499,2.88572742 C0.461598705,2.88572742 0.265332989,2.76424314 0.169654995,2.57213433 C0.0737315137,2.38002552 0.0948773312,2.15015083 0.224170591,1.97868805 C1.54450702,0.227048447 3.76861093,0.0244894676 5.32688282,0.0244894676 C5.36566211,0.0244894676 5.40392777,0.0246166169 5.44182331,0.0248696567 C5.46901564,0.0249930293 5.49683869,0.0249930293 5.52553794,0.0249930293 C5.56809016,0.0249930293 5.61240234,0.0248696567 5.65810561,0.0247437663 C5.70795822,0.0246166169 5.7596929,0.0244894676 5.8128174,0.0244894676 C6.5390844,0.0244894676 7.30751965,0.0604966516 8.00822333,0.3217168 C8.59185016,0.539381373 9.14766149,0.891755013 9.61533945,1.3408037 C10.1211685,1.82610883 10.4922923,2.39865856 10.6889356,2.99651604 C10.910251,3.66939668 10.9658959,4.34581231 10.8539742,5.00685547 C10.7494902,5.62485542 10.5040026,6.20407483 10.1243183,6.7285407 C9.69565755,7.32072682 9.10913398,7.81535288 8.42857026,8.15865485 C7.74032973,8.50560639 6.97240056,8.68903254 6.20736182,8.68903254 M6.20736182,8.1227723 C8.75878718,8.1227723 11.0297173,5.84503655 10.1511342,3.17339211 C9.79712902,2.09728062 8.81128097,1.22560891 7.81031978,0.852225415 C7.15745573,0.608750783 6.39481269,0.590747191 5.81281615,0.590747191 C5.71109919,0.590747191 5.61466837,0.591250753 5.52553668,0.591250753 C5.49583157,0.591250753 5.46674836,0.591250753 5.4385489,0.590997713 C5.40191226,0.590747191 5.36452406,0.590747191 5.32688156,0.590747191 C3.86454197,0.590747191 1.84500877,0.769133946 0.67611224,2.31947977 C2.2775658,2.31947977 1.96157954,4.10901239 2.16867183,5.17013663 C2.48428169,6.78733028 4.08422079,7.87477191 5.63657834,8.08450287 C5.82742321,8.11030915 6.01840657,8.1227723 6.2073656,8.1227723" id="path4115"></path>
                            </g>
                            <g id="g4117" transform="translate(3.461987, 8.749386) scale(-1, 1) rotate(-180.000000) translate(-3.461987, -8.749386) translate(2.266028, 7.553426)" fill="#3D3D3D">
                                <path d="M2.31828381,1.3192714 C2.37203903,0.693972317 1.90863254,0.143581825 1.28333723,0.0896994573 C0.657911,0.0360713882 0.10751799,0.499346954 0.0538924391,1.12464604 C6.29452207e-06,1.74994134 0.4635349,2.30046276 1.0888302,2.35421798 C1.71400214,2.4079732 2.26439641,1.94469763 2.31828255,1.3192714" id="path4119"></path>
                            </g>
                            <g id="g4121" transform="translate(3.832431, 9.119829) scale(-1, 1) rotate(-180.000000) translate(-3.832431, -9.119829) translate(3.021371, 8.308769)" fill="#515252">
                                <path d="M1.40273275,0.881673101 C1.40273275,0.507663252 1.14040816,0.204329164 0.816686346,0.204329164 C0.493189309,0.204329164 0.230864727,0.507663252 0.230864727,0.881673101 C0.230864727,1.2556899 0.493189309,1.55902399 0.816686346,1.55902399 C1.14040816,1.55902399 1.40273275,1.2556899 1.40273275,0.881673101" id="path4123"></path>
                            </g>
                            <g id="g4125" transform="translate(7.364591, 8.749386) scale(-1, 1) rotate(-180.000000) translate(-7.364591, -8.749386) translate(6.168632, 7.553426)" fill="#3D3D3D">
                                <path d="M2.31268924,1.3192714 C2.36644446,0.693972317 1.90316889,0.143581825 1.27787359,0.0896994573 C0.652447355,0.0360713882 0.101930973,0.499346954 0.0482978679,1.12464604 C-0.00558072327,1.74994134 0.457818215,2.30046276 1.08324445,2.35421798 C1.70853975,2.4079732 2.25881065,1.94469763 2.31268924,1.3192714" id="path4127"></path>
                            </g>
                            <g id="g4129" transform="translate(7.735034, 9.119829) scale(-1, 1) rotate(-180.000000) translate(-7.735034, -9.119829) translate(6.923974, 8.308769)" fill="#515252">
                                <path d="M1.39256205,0.881673101 C1.39256205,0.507663252 1.13023747,0.204329164 0.806501751,0.204329164 C0.482779934,0.204329164 0.220696353,0.507663252 0.220696353,0.881673101 C0.220696353,1.2556899 0.482779934,1.55902399 0.806501751,1.55902399 C1.13023747,1.55902399 1.39256205,1.2556899 1.39256205,0.881673101" id="path4131"></path>
                            </g>
                            <g id="g4133" transform="translate(4.965444, 3.706540) scale(-1, 1) rotate(-180.000000) translate(-4.965444, -3.706540) translate(4.154385, 2.895480)" fill="#3D3D3D">
                                <path d="M1.57215132,0.830074396 C1.57215132,0.44303823 1.22375963,0.129317014 0.793896078,0.129317014 C0.363855893,0.129317014 0.015276764,0.44303823 0.015276764,0.830074396 C0.015276764,1.21695159 0.363855893,1.53050411 0.793896078,1.53050411 C1.22375963,1.53050411 1.57215132,1.21695159 1.57215132,0.830074396" id="path4135"></path>
                            </g>
                            <g id="g4137" transform="translate(7.483253, 3.580650) scale(-1, 1) rotate(-180.000000) translate(-7.483253, -3.580650) translate(6.672193, 2.769590)" fill="#3D3D3D">
                                <path d="M1.51695292,0.777245198 C1.51695292,0.390204166 1.20323171,0.0766516498 0.816354507,0.0766516498 C0.429477309,0.0766516498 0.115765825,0.390204166 0.115765825,0.777245198 C0.115765825,1.1641224 0.429477309,1.47783875 0.816354507,1.47783875 C1.20323171,1.47783875 1.51695292,1.1641224 1.51695292,0.777245198" id="path4139"></path>
                            </g>
                            <g id="g4141" transform="translate(6.042741, 5.539179) scale(-1, 1) rotate(-180.000000) translate(-6.042741, -5.539179) translate(4.028494, 4.532056)" fill="#3D3D3D">
                                <path d="M1.98672238,0.120415466 C1.52332344,0.120415466 1.07364026,0.271108842 0.714725357,0.547688883 C0.349893598,0.82867509 0.114609399,1.21667069 0.0692838044,1.6122172 C0.0514111385,1.76756726 0.163072183,1.90806099 0.318298874,1.92581029 C0.473272526,1.94355958 0.614015521,1.83227621 0.631764815,1.67679899 C0.700879926,1.07378252 1.42172985,0.671062775 2.02813907,0.687175492 C2.8008546,0.707568485 3.31147001,1.16958766 3.41633801,1.6156175 C3.45221301,1.76769441 3.60466633,1.86198509 3.75686662,1.82635936 C3.90907823,1.7904768 4.00336136,1.63814937 3.96760847,1.48595034 C3.88200423,1.12187519 3.64747286,0.784490063 3.30719099,0.535982331 C2.95306244,0.277024434 2.51571905,0.133508072 2.04300044,0.121044918 C2.02423647,0.120668506 2.00548509,0.120415466 1.98672867,0.120415466" id="path4143"></path>
                            </g>
                        </g>
                    </g>
                </g>
            </g>
        </g>
    </g>
</svg>