<?xml version="1.0" encoding="utf-8"?>
<!-- Generator: Adobe Illustrator 21.0.0, SVG Export Plug-In . SVG Version: 6.00 Build 0)  -->
<svg version="1.1" id="Layer_1" xmlns="http://www.w3.org/2000/svg" xmlns:xlink="http://www.w3.org/1999/xlink" x="0px" y="0px"
	 viewBox="0 0 38 38" style="enable-background:new 0 0 38 38;" xml:space="preserve">
<style type="text/css">
	.st0{fill:#DBDBDB;}
	.st1{fill:#FFFFFF;}
	.st2{fill:#EF3829;}
</style>
<g>
	<circle class="st0" cx="15.9" cy="15.4" r="14.4"/>
	<g>
		<g>
			<circle class="st1" cx="21.5" cy="22" r="14.4"/>
			<path d="M21.5,37c-8.3,0-15-6.7-15-15s6.7-15,15-15c4,0,7.8,1.6,10.6,4.4S36.5,18,36.5,22l0,0l0,0C36.5,30.3,29.8,37,21.5,37z
				 M21.5,8.2C13.9,8.2,7.7,14.4,7.7,22s6.2,13.8,13.8,13.8S35.4,29.7,35.4,22l0,0c0-3.7-1.4-7.2-4.1-9.8
				C28.7,9.6,25.2,8.2,21.5,8.2z"/>
		</g>
		<g>
			<path d="M21.5,37c-3.8,0-6.8-5.4-7.3-12.9l1.1-0.1c0.5,6.7,3.1,11.8,6.2,11.8V37z"/>
		</g>
		<g>
			<rect x="21" y="7.6" width="1.1" height="28.8"/>
		</g>
		<g>
			<path d="M21.5,15.7c-4.3,0-8.4-0.9-11.3-2.5l0.5-1c2.7,1.5,6.6,2.3,10.7,2.3c1.2,0,2.4-0.1,3.5-0.2l0.1,1.1
				C24,15.7,22.8,15.7,21.5,15.7z"/>
		</g>
		<g>
			<path d="M10.8,31.8l-0.5-1c2.8-1.6,6.9-2.5,11.2-2.5c1.4,0,2.8,0.1,4.2,0.3l-0.2,1.1c-1.3-0.2-2.7-0.3-4-0.3
				C17.4,29.5,13.5,30.3,10.8,31.8z"/>
		</g>
		<g>
			<circle class="st2" cx="14.7" cy="22" r="2.1"/>
			<path d="M14.7,24.7c-1.4,0-2.6-1.2-2.6-2.6s1.2-2.6,2.6-2.6s2.6,1.2,2.6,2.6S16.1,24.7,14.7,24.7z M14.7,20.5
				c-0.8,0-1.5,0.7-1.5,1.5s0.7,1.5,1.5,1.5s1.5-0.7,1.5-1.5S15.5,20.5,14.7,20.5z"/>
		</g>
		<g>
			<rect x="7.1" y="21.5" width="5.5" height="1.1"/>
		</g>
		<g>
			<rect x="16.7" y="21.5" width="19.2" height="1.1"/>
		</g>
		<g>
			<circle class="st2" cx="27" cy="14.5" r="2.1"/>
			<path d="M27,17.1c-1.4,0-2.6-1.2-2.6-2.6s1.2-2.6,2.6-2.6s2.6,1.2,2.6,2.6S28.5,17.1,27,17.1z M27,13c-0.8,0-1.5,0.7-1.5,1.5
				S26.2,16,27,16s1.5-0.7,1.5-1.5S27.8,13,27,13z"/>
		</g>
		<g>
			<path d="M15.3,20l-1.1-0.1C14.7,12.4,17.8,7,21.5,7v1.1C18.4,8.2,15.7,13.3,15.3,20z"/>
		</g>
		<g>
			<circle class="st2" cx="27.7" cy="29.6" r="2.1"/>
			<path d="M27.7,32.2c-1.4,0-2.6-1.2-2.6-2.6s1.2-2.6,2.6-2.6s2.6,1.2,2.6,2.6C30.3,31,29.1,32.2,27.7,32.2z M27.7,28.1
				c-0.8,0-1.5,0.7-1.5,1.5s0.7,1.5,1.5,1.5s1.5-0.7,1.5-1.5S28.5,28.1,27.7,28.1z"/>
		</g>
		<g>
			<path d="M21.5,37v-1.1c1.7,0,3.4-1.6,4.6-4.5l1,0.4C25.8,35.1,23.7,37,21.5,37z"/>
		</g>
		<g>
			<path d="M28.4,27.6l-1.1-0.2c0.3-1.7,0.5-3.5,0.5-5.4s-0.2-3.7-0.5-5.4l1.1-0.2c0.3,1.8,0.5,3.7,0.5,5.6
				C28.9,24,28.8,25.9,28.4,27.6z"/>
		</g>
		<g>
			<path d="M26.1,12.7c-1.2-2.8-2.9-4.5-4.6-4.5V7.1c2.2,0,4.2,1.9,5.6,5.1L26.1,12.7z"/>
		</g>
		<g>
			<path d="M32.2,31.8c-0.8-0.4-1.7-0.8-2.7-1.2l0.3-1.1c1.1,0.4,2.1,0.8,2.9,1.3L32.2,31.8z"/>
		</g>
		<g>
			<path d="M29.2,14.7l-0.3-1.1c1.3-0.4,2.4-0.8,3.3-1.4l0.5,1C31.7,13.8,30.5,14.3,29.2,14.7z"/>
		</g>
	</g>
</g>
</svg>
