<?xml version="1.0" encoding="utf-8"?>
<!-- Generator: Adobe Illustrator 21.0.0, SVG Export Plug-In . SVG Version: 6.00 Build 0)  -->
<svg version="1.1" id="Layer_1" xmlns="http://www.w3.org/2000/svg" xmlns:xlink="http://www.w3.org/1999/xlink" x="0px" y="0px"
	 viewBox="0 0 38 38" style="enable-background:new 0 0 38 38;" xml:space="preserve">
<style type="text/css">
	.st0{fill:#E9EAEB;}
	.st1{fill:#BCC0C4;}
	.st2{fill:#EF3829;}
	.st3{fill:#FFFFFF;}
</style>
<g>
	<g>
		<circle class="st0" cx="21.8" cy="22.6" r="12.7"/>
	</g>
	<g>
		<g>
			<path class="st1" d="M35.9,18.3c-0.2-0.6-0.3-1.1-0.6-1.6l1-0.4c0.2,0.6,0.4,1.2,0.6,1.7L35.9,18.3z"/>
		</g>
		<g>
			<path class="st1" d="M34.9,15.7c-0.2-0.5-0.5-0.9-0.8-1.3l0.9-0.6c0.3,0.5,0.6,0.9,0.8,1.4L34.9,15.7z"/>
		</g>
		<g>
			<path class="st1" d="M33.6,13.5c-0.3-0.4-0.6-0.7-0.9-1.1l0.8-0.8c0.3,0.4,0.7,0.8,1,1.2L33.6,13.5z"/>
		</g>
		<g>
			<path class="st1" d="M32,11.8C29.4,9.3,25.8,8,22.2,8V6.9c3.9-0.1,7.7,1.3,10.6,4.1L32,11.8z"/>
		</g>
	</g>
	<g>
		<path class="st2" d="M18,6.9V5.7c0-1.3-1-2.4-2.3-2.4H3.9c-1.3,0-2.3,1.1-2.3,2.4v1.2C1.6,6.9,18,6.9,18,6.9z"/>
		<path d="M18.6,7.5H1V5.7c0-1.6,1.3-3,2.9-3h11.7c1.6,0,2.9,1.3,2.9,3v1.8H18.6z M2.2,6.3h15.2V5.7c0-1-0.8-1.8-1.7-1.8H3.9
			c-1,0-1.7,0.8-1.7,1.8V6.3z"/>
	</g>
	<g>
		<path class="st2" d="M1.6,27.6V30c0,1.1,1.2,2.4,2.3,2.4h11.7c1.1,0,2.3-1.2,2.3-2.4v-2.4C17.9,27.6,1.6,27.6,1.6,27.6z"/>
		<path d="M15.6,32.9H3.9c-1.5,0-2.9-1.5-2.9-3v-3h17.6v3c0,0.7-0.3,1.4-0.9,2C17.1,32.6,16.3,32.9,15.6,32.9z M2.2,28.2V30
			c0,0.8,1,1.8,1.7,1.8h11.7c0.4,0,0.8-0.2,1.2-0.6c0.4-0.4,0.6-0.8,0.6-1.2v-1.8C17.4,28.2,2.2,28.2,2.2,28.2z"/>
	</g>
	<g>
		<rect x="1.6" y="6.9" class="st3" width="16.4" height="20.7"/>
	</g>
	<g>
		<path d="M18.6,28.2H1V6.3h17.6V28.2z M2.2,27h15.2V7.5H2.2V27z"/>
	</g>
	<g>
		<rect x="8.3" y="29.3" width="2.9" height="1.2"/>
	</g>
	<g>
		<circle class="st3" cx="21.8" cy="22.6" r="10.8"/>
		<g>
			<g>
				<path class="st0" d="M28.6,15.3c-0.2,0.1-0.5,0.1-0.8,0.1c-0.4,0-0.8-0.1-1.1,0.2c-0.1,0.1-0.8,0.5-1.2,0
					c-0.2-0.3-0.3-0.4,0.9-1.8C27.2,14.2,28,14.7,28.6,15.3z"/>
				<path class="st0" d="M22.8,13.5c-0.4,0.2-0.5-0.1-0.7-0.3c0-0.1,0-0.3-0.1-0.6c0.4,0,0.9,0,1.3,0.1
					C23.3,13.1,23.2,13.4,22.8,13.5z"/>
				<path class="st0" d="M19.3,13c0,0.8,0.3,1.4,0.6,1.8c0.2,0.3,0.3,0.6,0.3,0.8c0,0.7-0.1,0.8-0.3,0.8c-0.1,0-0.3,0-0.5-0.1
					c-0.4-0.1-0.9-0.2-1.4,0.1c-0.4,0.3-0.5,0.6-0.5,0.9c0,0.2,0,0.3-0.3,0.4c-0.2,0.1-0.5,0-0.8-0.1c-0.4-0.1-1.2-0.3-1.5,0.4
					c-0.4,0.8,0.4,1.4,0.8,1.7c0.1,0.1,0.2,0.1,0.3,0.2c0.7,0.5,1.3,0.5,1.9,0.5c0.4,0,0.7,0,1,0.1s0.3,0.3,0.3,0.6
					c0,0.3,0,0.7,0.4,1.1c0.8,0.6,1.4,0.3,1.8,0.1c0.3-0.1,0.4-0.2,0.6-0.1c0.8,0.2,1.2,0.4,1.3,1.3c0,0.1,0,0.4-0.4,1
					c0,0.1-0.2,0.1-0.4,0.2c-0.4,0.1-0.9,0.2-1.2,0.8c-0.3,0.5-0.2,0.8-0.1,1.1c0,0.1,0.1,0.2,0,0.4c0,0.2-0.4,0.3-0.6,0.4
					c-0.4,0.2-0.9,0.4-1,0.9c-0.1,0.3-0.1,0.6,0,1c0.1,0.7,0,0.8-0.2,0.8c-0.2,0.1-0.3,0-0.4,0c-0.2-0.2-0.4-0.7-0.3-1.8
					c0-0.8-0.2-1.1-0.4-1.3c-0.2-0.2-0.3-0.3-0.2-1.1c0.1-1.6-0.7-2-1.2-2.2c-0.3-0.1-0.5-0.2-0.5-0.4c-0.1-0.3-0.1-0.6-0.1-1
					c0-0.6,0-1.3-0.7-1.6c-0.4-0.2-1.3-1.2-2.1-2.7C14.4,15.6,16.6,13.8,19.3,13z"/>
				<path class="st0" d="M30.9,18.1c-1.3-0.1-3-0.2-3.8,0s-1,0.3-0.9,0.7c0,0.1,0,0.2,0,0.3c0,0.1,0,0.1,0,0.1s0,0,0,0.1
					c0,0.2,0.1,0.2,0.4,0.4c0.2,0.1,0.5,0.3,0.7,0.6c0,0.1,0,0.1,0,0.2s0,0.2,0,0.3c0,0.2,0,0.3,0.1,0.4c0,0.1,0,0.2,0.1,0.3
					c0.2,0.1,0.4,0.1,0.7,0.1c0.3,0,0.9,0,1.2,0.6c0,0.1,0,0.1,0,0.2s0,0.2,0.1,0.3c0.1,0.3,0.2,0.4,0.4,0.6
					c0.2,0.1,0.5,0.3,0.6,0.6c0,0.1,0,0.1,0.1,0.2c0.1,0.8-0.5,1.3-1,1.6c-0.3,0.2-0.3,0.3-0.2,0.6c0,0.1,0,0.1,0.1,0.2
					c0,0.1,0.1,0.3,0,0.5c0,0.2-0.1,0.3-0.2,0.4c-0.1,0.2-0.2,0.3-0.1,0.6l0,0l0,0c0,0.1,0,0.1,0,0.2l0,0l0,0c0,0.1,0,0.2,0,0.4l0,0
					c0,0,0.1,0.1,0.5,0.3c1.3-1.7,2.1-3.9,2.1-6.3C31.9,21,31.5,19.5,30.9,18.1z"/>
			</g>
			<path d="M21.8,11.8c-6,0-10.8,4.9-10.8,10.8s4.9,10.8,10.8,10.8c6,0,10.8-4.9,10.8-10.8S27.8,11.8,21.8,11.8z M29.3,28.2
				L29.3,28.2c-0.1-0.3,0-0.4,0.1-0.7c0.1-0.1,0.1-0.3,0.2-0.4c0-0.2,0-0.5-0.1-0.7c-0.1-0.4-0.1-0.5,0.2-0.6c0.6-0.4,1.4-1,0.9-2
				c-0.1-0.3-0.4-0.5-0.6-0.6c-0.3-0.2-0.4-0.2-0.5-0.7c-0.1-1-0.9-1-1.3-1c-0.3,0-0.5,0-0.7-0.1c-0.1-0.1-0.1-0.2-0.1-0.4
				c0-0.2,0-0.5-0.1-0.7c-0.1-0.3-0.4-0.5-0.7-0.6c-0.3-0.1-0.4-0.2-0.4-0.4c-0.1-0.6,0-0.7,0.9-0.9c0.8-0.2,2.4-0.1,3.7,0
				c0.6,1.3,1,2.7,1,4.3c0,2.2-0.7,4.3-2,6C29.4,28.3,29.3,28.2,29.3,28.2z M28.6,15.3c-0.2,0.1-0.5,0.1-0.8,0.1
				c-0.4,0-0.8-0.1-1.1,0.2c-0.1,0.1-0.8,0.5-1.2,0c-0.2-0.3-0.3-0.4,0.9-1.8C27.1,14.1,27.9,14.6,28.6,15.3z M22.7,13.5
				c-0.4,0.2-0.5-0.1-0.7-0.3c0-0.1,0-0.3-0.1-0.6c0.4,0,0.9,0,1.3,0.1C23.3,13.1,23.1,13.3,22.7,13.5z M19.2,13
				c0,0.8,0.3,1.4,0.6,1.8c0.2,0.3,0.3,0.6,0.3,0.8c0,0.7-0.1,0.8-0.3,0.8c-0.1,0-0.3,0-0.5-0.1c-0.4-0.1-0.9-0.2-1.4,0.1
				c-0.4,0.3-0.5,0.6-0.5,0.9c0,0.2,0,0.3-0.3,0.4c-0.2,0.1-0.5,0-0.8-0.1c-0.4-0.1-1.2-0.3-1.5,0.4c-0.4,0.8,0.4,1.4,0.8,1.7
				c0.1,0.1,0.2,0.1,0.3,0.2c0.7,0.5,1.3,0.5,1.9,0.5c0.4,0,0.7,0,1,0.1s0.3,0.3,0.3,0.6c0,0.3,0,0.7,0.4,1.1
				c0.8,0.6,1.4,0.3,1.8,0.1c0.3-0.1,0.4-0.2,0.6-0.1c0.8,0.2,1.2,0.4,1.3,1.3c0,0.1,0,0.4-0.4,1c0,0.1-0.2,0.1-0.4,0.2
				c-0.4,0.1-0.9,0.2-1.2,0.8c-0.3,0.5-0.2,0.8-0.1,1.1c0,0.1,0.1,0.2,0,0.4c0,0.2-0.4,0.3-0.6,0.4c-0.4,0.2-0.9,0.4-1,0.9
				c-0.1,0.3-0.1,0.6,0,1c0.1,0.7,0,0.8-0.2,0.8c-0.2,0.1-0.3,0-0.4,0c-0.2-0.2-0.4-0.7-0.3-1.8c0-0.8-0.2-1.1-0.4-1.3
				c-0.2-0.2-0.3-0.3-0.2-1.1c0.1-1.6-0.7-2-1.2-2.2c-0.3-0.1-0.5-0.2-0.5-0.4c-0.1-0.3-0.1-0.6-0.1-1c0-0.6,0-1.3-0.7-1.6
				c-0.4-0.2-1.3-1.2-2.1-2.7C14.3,15.5,16.5,13.7,19.2,13z M21.8,32.5c-5.5,0-9.9-4.5-9.9-9.9c0-1.3,0.2-2.5,0.7-3.6
				c0.7,1.3,1.6,2.2,2.1,2.5c0.2,0.1,0.3,0.3,0.2,0.9c0,0.4,0,0.9,0.2,1.4s0.6,0.7,1,0.8c0.5,0.2,0.8,0.4,0.7,1.4
				c-0.1,1,0.2,1.4,0.5,1.7c0.1,0.2,0.2,0.2,0.2,0.7c-0.1,0.9,0,2,0.7,2.5c0.2,0.1,0.4,0.2,0.7,0.2c0.1,0,0.3,0,0.4-0.1
				c1-0.3,0.9-1.2,0.8-1.7c0-0.2,0-0.5,0-0.6s0.3-0.3,0.6-0.4c0.4-0.2,1-0.5,1.1-1c0.1-0.4,0-0.7,0-0.8c0-0.2-0.1-0.2,0.1-0.5
				c0.1-0.2,0.3-0.3,0.7-0.4c0.3-0.1,0.7-0.2,1-0.6c0.4-0.6,0.5-1.1,0.5-1.6c-0.1-1.5-1.1-1.9-1.9-2.1c-0.5-0.1-0.8,0.1-1.1,0.2
				c-0.4,0.2-0.6,0.3-0.9,0c-0.1-0.1-0.1-0.2-0.1-0.4c0-0.4,0-0.9-0.7-1.3c-0.5-0.3-1-0.3-1.4-0.3c-0.5,0-0.9,0-1.3-0.3
				c-0.1-0.1-0.2-0.2-0.3-0.2c-0.5-0.3-0.6-0.4-0.5-0.6c0.1,0,0.3,0,0.5,0.1c0.4,0.1,0.9,0.2,1.4,0c0.6-0.3,0.7-0.8,0.7-1.1
				c0-0.2,0-0.2,0.1-0.3c0.1-0.1,0.4,0,0.7,0c0.3,0.1,0.6,0.2,0.9,0.1c1-0.2,1-1.1,1-1.7c0-0.5-0.2-0.9-0.4-1.2
				c-0.3-0.5-0.5-0.9-0.5-1.6c0.3-0.1,0.7-0.1,1-0.1c0,0.3,0.1,0.8,0.2,0.9c0.3,0.6,0.8,0.8,1.2,0.8c0.2,0,0.4,0,0.6-0.1
				c0.8-0.4,1-0.9,1.1-1.4c0.5,0.1,0.9,0.3,1.4,0.4c-1.3,1.3-1.4,1.9-0.8,2.7c0.3,0.4,0.8,0.6,1.2,0.6c0.4,0,0.9-0.2,1.2-0.4
				c0.1-0.1,0.3,0,0.5,0c0.4,0.1,1,0.1,1.6-0.3c0.4,0.5,0.8,1,1.1,1.5c-1-0.1-2.5-0.1-3.4,0.1c-0.8,0.2-1.7,0.4-1.5,1.8
				c0.1,0.7,0.5,0.9,0.8,1.1c0.1,0.1,0.2,0.1,0.3,0.2c0,0.1,0,0.2,0.1,0.4c0,0.3,0,0.8,0.5,1.1c0.4,0.3,0.9,0.3,1.2,0.3
				c0.1,0,0.3,0,0.3,0s0,0,0,0.2c0.1,0.9,0.6,1.2,0.9,1.4C30,24,30,24,30.1,24.1c0.1,0.2,0.2,0.5-0.6,1c-0.8,0.5-0.6,1.2-0.5,1.6
				c0,0.1,0.1,0.2,0.1,0.3c0,0.1-0.1,0.2-0.1,0.3c-0.1,0.3-0.3,0.7-0.1,1.3c0.1,0.3,0.3,0.5,0.7,0.7C27.4,31.2,24.8,32.5,21.8,32.5z
				"/>
		</g>
	</g>
</g>
</svg>
