<?xml version="1.0" encoding="utf-8"?>
<!-- Generator: Adobe Illustrator 21.0.0, SVG Export Plug-In . SVG Version: 6.00 Build 0)  -->
<svg version="1.1" id="Layer_1" xmlns="http://www.w3.org/2000/svg" xmlns:xlink="http://www.w3.org/1999/xlink" x="0px" y="0px"
	 viewBox="0 0 38 38" style="enable-background:new 0 0 38 38;" xml:space="preserve">
<style type="text/css">
	.st0{fill:#FFFFFF;}
	.st1{fill:#EF3829;}
	.st2{fill:#090909;}
</style>
<g>
	<g>
		<path class="st0" d="M36.3,29.7V5.1c0-0.5-0.4-1-1-1H2.7c-0.5,0-1,0.4-1,1v30.4c0,0.5,0.4,1,1,1h26.9L36.3,29.7z"/>
	</g>
	<g>
		<path class="st1" d="M36.3,14H1.7V5.1c0-0.6,0.4-1,1-1h32.6c0.6,0,1,0.4,1,1V14z"/>
		<path d="M36.9,14.5H1.1V5c0-0.8,0.7-1.5,1.5-1.5h32.8c0.8,0,1.5,0.7,1.5,1.5C36.9,5,36.9,14.5,36.9,14.5z M2.2,13.4h33.5V5
			c0-0.2-0.2-0.4-0.4-0.4H2.6C2.4,4.6,2.2,4.8,2.2,5V13.4z"/>
	</g>
	<g>
		<path d="M15.1,29.6h-2.2v-8.7l-2.7,0.8v-1.8l4.7-1.7h0.2V29.6z"/>
		<path d="M19.1,24l0.7-5.8h6.3v1.9h-4.5l-0.3,2.4c0.5-0.3,1.1-0.4,1.7-0.4c1.1,0,1.9,0.3,2.5,1s0.9,1.6,0.9,2.8
			c0,0.7-0.2,1.4-0.5,2s-0.8,1-1.3,1.3c-0.6,0.3-1.3,0.5-2,0.5s-1.3-0.1-1.9-0.4s-1-0.7-1.4-1.2c-0.3-0.5-0.5-1.1-0.5-1.7H21
			c0,0.5,0.2,0.8,0.5,1.1c0.3,0.3,0.7,0.4,1.1,0.4c0.5,0,0.9-0.2,1.2-0.5c0.3-0.4,0.4-0.9,0.4-1.6c0-0.6-0.2-1.1-0.5-1.5
			c-0.3-0.3-0.8-0.5-1.3-0.5s-1,0.1-1.3,0.4l-0.2,0.2L19.1,24z"/>
	</g>
	<g>
		<g>
			<polygon class="st1" points="36.3,29.6 29.6,29.6 29.6,36.5 			"/>
		</g>
		<g>
			<polygon class="st2" points="30.5,34.2 28.6,34.2 28.6,28.7 34.1,28.7 34.1,30.5 30.5,30.5 			"/>
		</g>
	</g>
	<g>
		<path d="M29.8,37H2.7c-0.9,0-1.5-0.7-1.5-1.5V5.1c0-0.9,0.7-1.5,1.5-1.5h32.7c0.9,0,1.5,0.7,1.5,1.5v24.8L29.8,37z M2.7,4.6
			C2.5,4.6,2.3,4.8,2.3,5v30.4c0,0.2,0.2,0.4,0.4,0.4h26.7l6.4-6.4V5.1c0-0.2-0.2-0.4-0.4-0.4L2.7,4.6L2.7,4.6z"/>
	</g>
	<g>
		<g>
			<path class="st0" d="M10.9,6.9L10.9,6.9c-0.7,0-1.2-0.5-1.2-1.2V2.8c0-0.7,0.5-1.2,1.2-1.2l0,0c0.7,0,1.2,0.5,1.2,1.2v2.9
				C12.1,6.4,11.6,6.9,10.9,6.9z"/>
			<path d="M11,7.5h-0.2c-0.9,0-1.7-0.8-1.7-1.7V2.7C9.1,1.8,9.9,1,10.8,1H11c0.9,0,1.7,0.8,1.7,1.7v3.1C12.7,6.7,11.9,7.5,11,7.5z
				 M10.8,2.1c-0.3,0-0.6,0.3-0.6,0.6v3.1c0,0.3,0.3,0.6,0.6,0.6H11c0.3,0,0.6-0.3,0.6-0.6V2.7c0-0.3-0.3-0.6-0.6-0.6H10.8z"/>
		</g>
		<g>
			<path class="st0" d="M27.2,6.9L27.2,6.9c-0.7,0-1.2-0.5-1.2-1.2V2.8c0-0.7,0.5-1.2,1.2-1.2l0,0c0.7,0,1.2,0.5,1.2,1.2v2.9
				C28.4,6.4,27.9,6.9,27.2,6.9z"/>
			<path d="M27.3,7.5h-0.2c-0.9,0-1.7-0.8-1.7-1.7V2.7c0-0.9,0.8-1.7,1.7-1.7h0.2C28.2,1,29,1.8,29,2.7v3.1
				C29,6.7,28.2,7.5,27.3,7.5z M27.1,2.1c-0.3,0-0.6,0.3-0.6,0.6v3.1c0,0.3,0.3,0.6,0.6,0.6h0.2c0.3,0,0.6-0.3,0.6-0.6V2.7
				c0-0.3-0.3-0.6-0.6-0.6H27.1z"/>
		</g>
	</g>
</g>
</svg>
